<?xml version="1.0" standalone="no"?>
<!DOCTYPE svg PUBLIC "-//W3C//DTD SVG 20010904//EN"
 "http://www.w3.org/TR/2001/REC-SVG-20010904/DTD/svg10.dtd">
<svg version="1.0" xmlns="http://www.w3.org/2000/svg"
 width="500.000000pt" height="500.000000pt" viewBox="0 0 500.000000 500.000000"
 preserveAspectRatio="xMidYMid meet">

<g transform="translate(0.000000,500.000000) scale(0.100000,-0.100000)"
fill="#000000" stroke="none">
<path d="M2165 3554 c-171 -22 -260 -46 -365 -99 -306 -153 -499 -432 -540
-782 -39 -323 116 -670 390 -877 81 -61 244 -139 334 -161 256 -62 527 -24
746 105 107 64 131 88 137 142 5 44 3 50 -30 83 -48 48 -85 47 -166 -5 -159
-103 -258 -134 -431 -134 -135 -1 -193 10 -302 55 -214 88 -383 284 -444 514
-25 96 -25 274 0 370 94 357 426 597 790 571 142 -10 251 -48 387 -136 35 -22
74 -40 90 -40 80 0 129 75 100 153 -17 45 -189 150 -315 192 -107 35 -297 60
-381 49z"/>
<path d="M2095 3184 c-117 -26 -209 -77 -300 -169 -143 -144 -207 -335 -175
-526 17 -100 42 -164 99 -251 60 -93 134 -158 236 -209 251 -124 536 -74 728
130 106 113 167 259 167 402 0 56 -3 64 -34 95 l-34 34 -233 0 c-213 0 -237
-2 -265 -19 -66 -40 -66 -142 0 -182 27 -16 51 -19 179 -19 l148 0 -6 -22
c-21 -69 -92 -157 -164 -202 -89 -56 -217 -73 -324 -42 -246 71 -355 377 -212
592 110 166 329 224 507 134 32 -17 73 -30 91 -30 48 0 94 33 106 75 23 85
-34 144 -189 195 -87 28 -232 35 -325 14z"/>
</g>
</svg>
