<svg width="5922" height="3469" xmlns="http://www.w3.org/2000/svg" xmlns:xlink="http://www.w3.org/1999/xlink" xml:space="preserve" overflow="hidden"><defs><clipPath id="clip0"><rect x="-622" y="-344" width="5922" height="3469"/></clipPath></defs><g clip-path="url(#clip0)" transform="translate(622 344)"><rect x="0.499836" y="0.499836" width="4400" height="2475" stroke="#0D82F6" stroke-width="4.58333" stroke-miterlimit="8" fill="#0D82F6"/><path d="M2609.09 2666.12C2521.59 2655.94 2442.43 2574.06 2450.77 2502.36 2459.11 2430.66 2379.95 2348.78 2292.45 2338.6" stroke="#85DBFF" stroke-width="10.3125" stroke-miterlimit="8" fill="none" fill-rule="evenodd"/><path d="M2633.64 2633.5C2551.27 2623.92 2477.23 2542.64 2485.57 2470.93 2493.91 2399.23 2409.63 2316.76 2317.01 2305.99" stroke="#85DBFF" stroke-width="10.3125" stroke-miterlimit="8" fill="none" fill-rule="evenodd"/><path d="M2659.29 2591.49C2576.92 2581.91 2502.88 2500.63 2511.22 2428.93 2519.55 2357.22 2435.27 2274.75 2342.66 2263.98" stroke="#85DBFF" stroke-width="10.3125" stroke-miterlimit="8" fill="none" fill-rule="evenodd"/><path d="M2684.74 2551.2C2602.36 2541.62 2528.33 2460.34 2536.66 2388.63 2545 2316.93 2460.72 2234.45 2368.1 2223.68" stroke="#85DBFF" stroke-width="10.3125" stroke-miterlimit="8" fill="none" fill-rule="evenodd"/><path d="M2710.19 2510.89C2627.81 2501.31 2553.78 2420.03 2562.11 2348.33 2570.45 2276.62 2486.17 2194.15 2393.55 2183.38" stroke="#85DBFF" stroke-width="10.3125" stroke-miterlimit="8" fill="none" fill-rule="evenodd"/><path d="M-619.5 1148C-619.5 886.493-382.882 674.5-90.9999 674.5 192.013 674.5 424.796 874.244 437.008 1127.57L191.276 1137.08C183.786 1011.52 51.3344 914.628-104.562 920.661-255.193 926.489-373.602 1026.55-373.602 1148Z" stroke="#0B55DC" stroke-width="4.58333" stroke-miterlimit="8" fill="#0B55DC" fill-rule="evenodd"/><path d="M-7.9999 2475.34C-7.9999 2387.26 64.1878 2299.17 136.375 2299.17 208.563 2299.17 280.75 2211.09 280.75 2123" stroke="#85DBFF" stroke-width="10.3125" stroke-miterlimit="8" fill="none" fill-rule="evenodd"/><path d="M27.0002 2495.34C27.0002 2412.41 99.1879 2329.48 171.375 2329.48 243.563 2329.48 315.75 2236.24 315.75 2143" stroke="#85DBFF" stroke-width="10.3125" stroke-miterlimit="8" fill="none" fill-rule="evenodd"/><path d="M71.9998 2516.34C71.9998 2433.41 144.188 2350.48 216.375 2350.48 288.563 2350.48 360.75 2257.24 360.75 2164" stroke="#85DBFF" stroke-width="10.3125" stroke-miterlimit="8" fill="none" fill-rule="evenodd"/><path d="M115 2537.34C115 2454.41 187.188 2371.48 259.375 2371.48 331.563 2371.48 403.75 2278.24 403.75 2185" stroke="#85DBFF" stroke-width="10.3125" stroke-miterlimit="8" fill="none" fill-rule="evenodd"/><path d="M158 2557.34C158 2474.41 230.188 2391.48 302.375 2391.48 374.563 2391.48 446.75 2298.24 446.75 2205" stroke="#85DBFF" stroke-width="10.3125" stroke-miterlimit="8" fill="none" fill-rule="evenodd"/><path d="M1665.63 311.03C1579.9 290.808 1510.74 200.326 1527.31 130.067 1543.88 59.807 1474.72-30.6744 1388.99-50.8966" stroke="#85DBFF" stroke-width="10.3125" stroke-miterlimit="8" fill="none" fill-rule="evenodd"/><path d="M1693.79 281.47C1613.08 262.432 1548.94 173.134 1565.51 102.875 1582.08 32.615 1507.9-59.0502 1417.15-80.4562" stroke="#85DBFF" stroke-width="10.3125" stroke-miterlimit="8" fill="none" fill-rule="evenodd"/><path d="M1724.12 242.711C1643.41 223.673 1579.27 134.375 1595.84 64.1155 1612.41-6.14412 1538.23-97.8094 1447.48-119.215" stroke="#85DBFF" stroke-width="10.3125" stroke-miterlimit="8" fill="none" fill-rule="evenodd"/><path d="M1754.06 205.627C1673.35 186.589 1609.2 97.291 1625.78 27.0317 1642.35-43.228 1568.17-134.893 1477.42-156.299" stroke="#85DBFF" stroke-width="10.3125" stroke-miterlimit="8" fill="none" fill-rule="evenodd"/><path d="M1784 168.537C1703.28 149.498 1639.14 60.2002 1655.71-10.059 1672.29-80.3187 1598.11-171.984 1507.35-193.39" stroke="#85DBFF" stroke-width="10.3125" stroke-miterlimit="8" fill="none" fill-rule="evenodd"/><path d="M1847.44 166.019C1761.71 145.797 1692.55 55.3151 1709.12-14.9442 1725.69-85.2038 1656.53-175.685 1570.8-195.907" stroke="#85DBFF" stroke-width="10.3125" stroke-miterlimit="8" fill="none" fill-rule="evenodd"/><path d="M1875.6 136.459C1794.89 117.421 1730.75 28.123 1747.32-42.1362 1763.89-112.396 1689.71-204.061 1598.96-225.467" stroke="#85DBFF" stroke-width="10.3125" stroke-miterlimit="8" fill="none" fill-rule="evenodd"/><path d="M1905.93 97.7003C1825.22 78.662 1761.08-10.6361 1777.65-80.8954 1794.22-151.155 1720.04-242.82 1629.29-264.226" stroke="#85DBFF" stroke-width="10.3125" stroke-miterlimit="8" fill="none" fill-rule="evenodd"/><path d="M1935.87 60.6165C1855.16 41.5781 1791.01-47.7199 1807.59-117.979 1824.16-188.239 1749.98-279.904 1659.23-301.31" stroke="#85DBFF" stroke-width="10.3125" stroke-miterlimit="8" fill="none" fill-rule="evenodd"/><path d="M1965.81 23.5258C1885.09 4.48739 1820.95-84.8107 1837.52-155.07 1854.1-225.33 1779.92-316.995 1689.16-338.401" stroke="#85DBFF" stroke-width="10.3125" stroke-miterlimit="8" fill="none" fill-rule="evenodd"/><rect x="542.5" y="121.5" width="2025" height="298" stroke="#0D82F6" stroke-width="4.58333" stroke-miterlimit="8" fill="#0D82F6"/><path d="M0 434 479.5 0 959 434Z" fill="#0D82F6" fill-rule="evenodd" transform="matrix(1 0 0 -1 891 226)"/><path d="M0 324 404.5 0 809 324Z" fill="#082FB2" fill-rule="evenodd" transform="matrix(1 0 0 -1 981 138)"/><path d="M1760 167 2208.5-195 2657 167Z" fill="#0D82F6" fill-rule="evenodd"/><path d="M2369.8 2764.95C2282.3 2754.78 2203.14 2672.9 2211.48 2601.2 2219.82 2529.49 2140.66 2447.61 2053.16 2437.44" stroke="#85DBFF" stroke-width="10.3125" stroke-miterlimit="8" fill="none" fill-rule="evenodd"/><path d="M2394.35 2732.34C2311.98 2722.76 2237.94 2641.48 2246.28 2569.77 2254.62 2498.07 2170.34 2415.59 2077.72 2404.82" stroke="#85DBFF" stroke-width="10.3125" stroke-miterlimit="8" fill="none" fill-rule="evenodd"/><path d="M2420 2690.33C2337.63 2680.75 2263.59 2599.47 2271.93 2527.77 2280.26 2456.06 2195.98 2373.59 2103.37 2362.82" stroke="#85DBFF" stroke-width="10.3125" stroke-miterlimit="8" fill="none" fill-rule="evenodd"/><path d="M2445.45 2650.03C2363.07 2640.46 2289.04 2559.17 2297.38 2487.47 2305.71 2415.76 2221.43 2333.29 2128.81 2322.52" stroke="#85DBFF" stroke-width="10.3125" stroke-miterlimit="8" fill="none" fill-rule="evenodd"/><path d="M2470.9 2609.73C2388.52 2600.15 2314.49 2518.87 2322.82 2447.17 2331.16 2375.46 2246.88 2292.99 2154.26 2282.22" stroke="#85DBFF" stroke-width="10.3125" stroke-miterlimit="8" fill="none" fill-rule="evenodd"/><path d="M0 434 722 0 1444 434Z" fill="#0D82F6" fill-rule="evenodd" transform="matrix(1 0 0 -1 1252 2536)"/><path d="M0 324 491 0 982 324Z" fill="#082FB2" fill-rule="evenodd" transform="matrix(1 0 0 -1 1469 2478)"/><path d="M4614.08 2222.07C4603.79 2309.55 4521.8 2388.6 4450.11 2380.16 4378.41 2371.72 4296.42 2450.76 4286.13 2538.24" stroke="#85DBFF" stroke-width="10.3125" stroke-miterlimit="8" fill="none" fill-rule="evenodd"/><path d="M4581.5 2197.47C4571.81 2279.83 4490.42 2353.75 4418.73 2345.31 4347.04 2336.88 4264.44 2421.04 4253.54 2513.64" stroke="#85DBFF" stroke-width="10.3125" stroke-miterlimit="8" fill="none" fill-rule="evenodd"/><path d="M4539.53 2171.76C4529.84 2254.12 4448.45 2328.05 4376.76 2319.61 4305.07 2311.17 4222.47 2395.33 4211.57 2487.94" stroke="#85DBFF" stroke-width="10.3125" stroke-miterlimit="8" fill="none" fill-rule="evenodd"/><path d="M4499.27 2146.26C4489.58 2228.62 4408.19 2302.54 4336.5 2294.1 4264.81 2285.67 4182.21 2369.83 4171.31 2462.43" stroke="#85DBFF" stroke-width="10.3125" stroke-miterlimit="8" fill="none" fill-rule="evenodd"/><path d="M4459 2120.75C4449.31 2203.11 4367.92 2277.04 4296.23 2268.6 4224.54 2260.16 4141.95 2344.32 4131.05 2436.93" stroke="#85DBFF" stroke-width="10.3125" stroke-miterlimit="8" fill="none" fill-rule="evenodd"/><path d="M3668.5 2726.5C3668.5 2507.8 3844.23 2330.5 4061 2330.5 4277.77 2330.5 4453.5 2507.8 4453.5 2726.5 4453.5 2945.21 4277.77 3122.5 4061 3122.5 3844.23 3122.5 3668.5 2945.21 3668.5 2726.5Z" stroke="#0B55DC" stroke-width="4.58333" stroke-miterlimit="8" fill="#0B55DC" fill-rule="evenodd"/><path d="M0 0 450.885 254.251" stroke="#95EEFD" stroke-width="10.3125" stroke-miterlimit="8" fill="none" fill-rule="evenodd" transform="matrix(1 0 0 -1 4159 -39.7491)"/><path d="M0 0 533.372 295.484" stroke="#95EEFD" stroke-width="10.3125" stroke-miterlimit="8" fill="none" fill-rule="evenodd" transform="matrix(1 0 0 -1 4121 39.4838)"/><path d="M0 0 586.614 329" stroke="#95EEFD" stroke-width="10.3125" stroke-miterlimit="8" fill="none" fill-rule="evenodd" transform="matrix(1 0 0 -1 4109 111)"/><path d="M0 0 625.196 359.995" stroke="#95EEFD" stroke-width="10.3125" stroke-miterlimit="8" fill="none" fill-rule="evenodd" transform="matrix(1 0 0 -1 4117 179.995)"/><path d="M0 0 649.898 370.672" stroke="#95EEFD" stroke-width="10.3125" stroke-miterlimit="8" fill="none" fill-rule="evenodd" transform="matrix(1 0 0 -1 4136 228.672)"/><path d="M0 0 664.435 379.253" stroke="#95EEFD" stroke-width="10.3125" stroke-miterlimit="8" fill="none" fill-rule="evenodd" transform="matrix(1 0 0 -1 4166 275.253)"/><path d="M0 0 669.189 382.424" stroke="#95EEFD" stroke-width="10.3125" stroke-miterlimit="8" fill="none" fill-rule="evenodd" transform="matrix(1 0 0 -1 4205 316.424)"/><path d="M0 0 658.477 379.253" stroke="#95EEFD" stroke-width="10.3125" stroke-miterlimit="8" fill="none" fill-rule="evenodd" transform="matrix(1 0 0 -1 4260 351.253)"/><path d="M0 0 634.275 362.233" stroke="#95EEFD" stroke-width="10.3125" stroke-miterlimit="8" fill="none" fill-rule="evenodd" transform="matrix(1 0 0 -1 4328 372.233)"/><path d="M0 0 604.008 341.192" stroke="#95EEFD" stroke-width="10.3125" stroke-miterlimit="8" fill="none" fill-rule="evenodd" transform="matrix(1 0 0 -1 4402 389.192)"/><path d="M4519.62 1269.59C4432.12 1259.42 4352.96 1177.54 4361.3 1105.84 4369.64 1034.13 4290.48 952.256 4202.98 942.082" stroke="#85DBFF" stroke-width="10.3125" stroke-miterlimit="8" fill="none" fill-rule="evenodd"/><path d="M4544.17 1236.98C4461.8 1227.4 4387.76 1146.12 4396.1 1074.41 4404.44 1002.71 4320.16 920.234 4227.54 909.465" stroke="#85DBFF" stroke-width="10.3125" stroke-miterlimit="8" fill="none" fill-rule="evenodd"/><path d="M4569.82 1194.97C4487.45 1185.39 4413.41 1104.11 4421.75 1032.41 4430.08 960.702 4345.8 878.228 4253.18 867.458" stroke="#85DBFF" stroke-width="10.3125" stroke-miterlimit="8" fill="none" fill-rule="evenodd"/><path d="M4595.27 1154.67C4512.89 1145.1 4438.86 1063.81 4447.19 992.11 4455.53 920.405 4371.25 837.931 4278.63 827.162" stroke="#85DBFF" stroke-width="10.3125" stroke-miterlimit="8" fill="none" fill-rule="evenodd"/><path d="M4620.72 1114.37C4538.34 1104.79 4464.31 1023.51 4472.64 951.806 4480.98 880.102 4396.7 797.628 4304.08 786.859" stroke="#85DBFF" stroke-width="10.3125" stroke-miterlimit="8" fill="none" fill-rule="evenodd"/><path d="M4392.58 1474.68C4305.09 1464.51 4225.93 1382.63 4234.27 1310.92 4242.6 1239.22 4163.45 1157.34 4075.95 1147.17" stroke="#85DBFF" stroke-width="10.3125" stroke-miterlimit="8" fill="none" fill-rule="evenodd"/><path d="M4417.14 1442.06C4334.76 1432.49 4260.73 1351.2 4269.07 1279.5 4277.4 1207.79 4193.12 1125.32 4100.5 1114.55" stroke="#85DBFF" stroke-width="10.3125" stroke-miterlimit="8" fill="none" fill-rule="evenodd"/><path d="M4442.79 1400.06C4360.41 1390.48 4286.38 1309.2 4294.71 1237.49 4303.05 1165.79 4218.77 1083.31 4126.15 1072.54" stroke="#85DBFF" stroke-width="10.3125" stroke-miterlimit="8" fill="none" fill-rule="evenodd"/><path d="M4468.23 1359.76C4385.86 1350.18 4311.82 1268.9 4320.16 1197.2 4328.5 1125.49 4244.22 1043.02 4151.6 1032.25" stroke="#85DBFF" stroke-width="10.3125" stroke-miterlimit="8" fill="none" fill-rule="evenodd"/><path d="M4493.68 1319.46C4411.31 1309.88 4337.27 1228.6 4345.61 1156.89 4353.95 1085.19 4269.67 1002.71 4177.05 991.944" stroke="#85DBFF" stroke-width="10.3125" stroke-miterlimit="8" fill="none" fill-rule="evenodd"/><path d="M4262.45 1667.77C4174.95 1657.59 4095.79 1575.71 4104.13 1504.01 4112.47 1432.3 4033.31 1350.43 3945.81 1340.25" stroke="#85DBFF" stroke-width="10.3125" stroke-miterlimit="8" fill="none" fill-rule="evenodd"/><path d="M4287 1635.15C4204.63 1625.57 4130.59 1544.29 4138.93 1472.58 4147.27 1400.88 4062.99 1318.4 3970.37 1307.64" stroke="#85DBFF" stroke-width="10.3125" stroke-miterlimit="8" fill="none" fill-rule="evenodd"/><path d="M4312.65 1593.14C4230.28 1583.56 4156.24 1502.28 4164.58 1430.58 4172.92 1358.87 4088.63 1276.4 3996.02 1265.63" stroke="#85DBFF" stroke-width="10.3125" stroke-miterlimit="8" fill="none" fill-rule="evenodd"/><path d="M4338.1 1552.85C4255.72 1543.27 4181.69 1461.98 4190.02 1390.28 4198.36 1318.58 4114.08 1236.1 4021.46 1225.33" stroke="#85DBFF" stroke-width="10.3125" stroke-miterlimit="8" fill="none" fill-rule="evenodd"/><path d="M4363.55 1512.54C4281.17 1502.96 4207.14 1421.68 4215.47 1349.98 4223.81 1278.27 4139.53 1195.8 4046.91 1185.03" stroke="#85DBFF" stroke-width="10.3125" stroke-miterlimit="8" fill="none" fill-rule="evenodd"/><path d="M0 435 722 0 1444 435Z" fill="#0D82F6" fill-rule="evenodd" transform="matrix(1 0 0 -1 3856 1675)"/><path d="M0 218 442 0 884 218Z" fill="#082FB2" fill-rule="evenodd" transform="matrix(1 0 0 -1 4136 1543)"/><path d="M0 681 786.5 0 1573 681Z" fill="#0D82F6" fill-rule="evenodd" transform="matrix(1 0 0 -1 3079 1371)"/><path d="M0 581.181 516.683 0 1033.37 581.181Z" fill="#0D82F6" fill-rule="evenodd" transform="matrix(-0.235242 -0.971937 -0.971937 0.235242 4565.59 2032.27)"/></g></svg>