<?xml version="1.0" standalone="no"?>
<!DOCTYPE svg PUBLIC "-//W3C//DTD SVG 20010904//EN"
 "http://www.w3.org/TR/2001/REC-SVG-20010904/DTD/svg10.dtd">
<svg version="1.0" xmlns="http://www.w3.org/2000/svg"
 width="1563.000000pt" height="1563.000000pt" viewBox="0 0 1563.000000 1563.000000"
 preserveAspectRatio="xMidYMid meet">

<g transform="translate(0.000000,1563.000000) scale(0.100000,-0.100000)"
fill="#000000" stroke="none">
<path d="M7375 10590 c-258 -37 -517 -143 -725 -299 -331 -247 -544 -587 -621
-991 -30 -152 -29 -414 0 -566 66 -343 217 -622 465 -862 491 -473 1229 -578
1841 -264 66 34 208 126 249 161 27 23 56 90 56 130 0 52 -37 118 -82 148 -31
21 -51 26 -98 26 -55 0 -63 -3 -157 -65 -163 -110 -306 -170 -479 -203 -116
-23 -338 -23 -454 -1 -724 139 -1169 870 -955 1571 132 433 496 759 950 852
111 23 351 23 468 0 169 -34 330 -104 489 -213 82 -56 82 -56 148 -52 78 4
120 30 150 93 46 94 14 172 -105 258 -104 75 -286 167 -405 206 -193 62 -258
73 -475 76 -110 2 -227 0 -260 -5z"/>
<path d="M7378 10000 c-370 -80 -662 -360 -759 -726 -32 -120 -37 -330 -11
-455 73 -354 325 -640 668 -757 230 -79 514 -65 738 37 184 83 345 228 455
410 104 171 168 457 127 565 -23 61 -82 113 -138 121 -24 3 -199 5 -389 3
l-346 -3 -40 -27 c-128 -85 -101 -276 46 -326 22 -8 113 -12 258 -12 l224 0
-6 -22 c-40 -131 -186 -298 -316 -361 -98 -48 -176 -67 -279 -69 -116 -1 -188
16 -297 68 -249 119 -396 399 -350 666 27 154 89 272 200 375 74 67 141 107
237 137 172 55 319 42 501 -45 90 -42 117 -51 148 -46 98 13 161 77 169 170 8
105 -55 169 -241 246 -172 71 -411 91 -599 51z"/>
<path d="M9380 6525 l-65 -65 130 -130 130 -130 135 0 135 0 -195 195 c-107
107 -197 195 -200 195 -3 0 -35 -29 -70 -65z"/>
</g>
</svg>
